<?xml version="1.0" encoding="UTF-8"?>
<svg width="752pt" height="752pt" version="1.1" viewBox="100 100 552 552" xmlns="http://www.w3.org/2000/svg">
 <g fill="#fff">
  <path d="m423.36 364.16h-27.379c-4.4414 0-7.3984 2.9609-7.3984 7.3984 0 4.4414 2.9609 7.3984 7.3984 7.3984h27.379c4.4414 0 7.3984-2.9609 7.3984-7.3984s-3.6992-7.3984-7.3984-7.3984z"/>
  <path d="m351.58 364.16h-27.379c-4.4414 0-7.3984 2.9609-7.3984 7.3984 0 4.4414 2.9609 7.3984 7.3984 7.3984h27.379c4.4414 0 7.3984-2.9609 7.3984-7.3984s-3.6992-7.3984-7.3984-7.3984z"/>
  <path d="m279.8 364.16h-27.379c-4.4414 0-7.3984 2.9609-7.3984 7.3984 0 4.4414 2.9609 7.3984 7.3984 7.3984l27.379 0.003907c4.4414 0 7.3984-2.9609 7.3984-7.3984 0-4.4414-3.6992-7.4023-7.3984-7.4023z"/>
  <path d="m590.59 328.64c0-73.258-76.957-132.45-170.93-132.45-51.059-0.74219-98.418 17.016-130.98 46.617-73.258 14.801-127.27 66.598-127.27 128.02 0 31.078 14.059 60.676 39.219 84.355l-11.84 92.496c0 2.9609 0.73828 5.918 2.9609 7.3984 1.4805 0.73828 2.9609 1.4805 4.4414 1.4805 1.4805 0 2.2188 0 3.6992-0.73828l93.234-54.758c2.9609 0.73828 5.1797 0.73828 8.1406 1.4805h0.73828c10.359 1.4805 20.719 2.2188 31.078 2.2188 51.059 0 96.938-17.758 128.75-45.137l91.758 54.02c1.4805 0.73828 2.2188 0.73828 3.6992 0.73828s2.9609-0.73828 4.4414-1.4805c2.2188-1.4805 3.6992-4.4414 2.9609-7.3984l-13.32-92.5c25.16-23.68 39.219-54.02 39.219-84.355zm-287.11 158.35s-0.73828 0 0 0c-3.6992-0.73828-6.6602-0.73828-10.359-1.4805-1.4805 0-3.6992 0-5.1797 0.73828l-82.879 48.84 10.359-81.398c0-2.2188-0.73828-5.1797-2.2188-6.6602-23.68-21.461-37-48.098-37-76.219 0-65.117 70.297-117.66 156.13-117.66 85.836 0 156.13 52.539 156.13 117.66 0 65.117-70.297 117.66-156.13 117.66-9.6172 0.74609-19.234 0.003906-28.855-1.4766zm233.09-76.215 10.359 81.398-74.734-44.402c19.98-21.461 31.82-48.098 31.82-76.957 0-73.258-76.957-132.45-170.93-132.45-5.1797 0-9.6211 0-14.801 0.73828 28.117-18.496 63.637-28.855 101.38-28.855 85.836 0 156.13 53.277 156.13 118.39 0 27.379-13.32 54.758-37 76.219-1.4766 1.4766-2.957 3.6953-2.2188 5.918z"/>
 </g>
</svg>
