<?xml version="1.0" encoding="UTF-8"?>
<svg width="752pt" height="752pt" version="1.1" viewBox="100 100 552 552" xmlns="http://www.w3.org/2000/svg">
 <defs>
  <clipPath id="c">
   <path d="m193 287h366v325.79h-366z"/>
  </clipPath>
  <clipPath id="b">
   <path d="m139.21 213h107.79v108h-107.79z"/>
  </clipPath>
  <clipPath id="a">
   <path d="m505 213h107.79v108h-107.79z"/>
  </clipPath>
 </defs>
 <g clip-path="url(#c)">
  <path d="m530.57 435.2h-47.641c-7.8125-28.266-26.523-52.277-52.027-66.758 7.3633-18.242 5.1758-38.953-5.8281-55.262-11.008-16.309-29.395-26.082-49.07-26.082-19.672 0-38.062 9.7734-49.066 26.082-11.008 16.309-13.191 37.02-5.832 55.262-25.5 14.48-44.211 38.492-52.027 66.758h-47.637c-8.668-0.003907-16.84 4.0469-22.09 10.945-5.2461 6.8945-6.9727 15.848-4.6602 24.203l33.668 122.09c1.6289 5.8477 5.125 10.996 9.9531 14.672 4.832 3.6719 10.73 5.668 16.797 5.6797h241.78c6.0664-0.011719 11.965-2.0078 16.797-5.6797 4.8281-3.6758 8.3242-8.8242 9.9531-14.672l33.668-122.09c2.3125-8.3555 0.58594-17.309-4.6602-24.203-5.25-6.8984-13.422-10.949-22.09-10.945zm-154.57-136.89c12.758 0 24.992 5.0664 34.012 14.086 9.0195 9.0234 14.086 21.254 14.086 34.012 0 12.758-5.0664 24.992-14.086 34.012-9.0195 9.0195-21.254 14.086-34.012 14.086-12.754 0-24.988-5.0664-34.008-14.086-9.0195-9.0195-14.09-21.254-14.09-34.012 0.015625-12.75 5.0859-24.977 14.105-33.992 9.0156-9.0195 21.242-14.09 33.992-14.105zm-49.793 79.992c10.848 17.008 29.621 27.305 49.793 27.305s38.949-10.297 49.793-27.305c21.84 12.527 38.125 32.855 45.582 56.902h-190.75c7.4609-24.047 23.746-44.375 45.582-56.902zm220.41 89.09-33.668 122.09v0.003906c-0.98047 3.5039-3.0781 6.5977-5.9766 8.8008-2.8984 2.2031-6.4375 3.4023-10.078 3.4062h-241.77c-3.6406-0.003906-7.1797-1.2031-10.078-3.4062-2.8984-2.2031-5-5.2969-5.9766-8.8008l-33.668-122.09v-0.003906c-1.3867-5.0078-0.35547-10.379 2.793-14.516 3.1484-4.1406 8.0469-6.5703 13.246-6.5742h309.13c5.1992 0 10.102 2.4297 13.254 6.5664 3.1484 4.1406 4.1836 9.5117 2.7969 14.523z" fill="#fff"/>
 </g>
 <g clip-path="url(#b)">
  <path d="m192.86 320.5c14.227 0 27.875-5.6523 37.934-15.715 10.062-10.059 15.715-23.703 15.715-37.934 0-14.227-5.6523-27.875-15.715-37.934-10.059-10.062-23.707-15.715-37.934-15.715-14.23 0-27.875 5.6523-37.934 15.715-10.062 10.059-15.715 23.707-15.715 37.934 0.015624 14.223 5.6758 27.859 15.73 37.918 10.059 10.055 23.695 15.715 37.918 15.73zm0-96.195c11.285 0 22.105 4.4805 30.086 12.461 7.9805 7.9805 12.461 18.801 12.461 30.086 0 11.285-4.4805 22.105-12.461 30.086-7.9805 7.9805-18.801 12.461-30.086 12.461s-22.109-4.4805-30.086-12.461c-7.9805-7.9805-12.465-18.801-12.465-30.086 0.015625-11.281 4.5-22.094 12.477-30.07 7.9766-7.9766 18.793-12.465 30.074-12.477z" fill="#fff"/>
 </g>
 <path d="m320.39 238.2c1.4609 2.5391 3.5703 4.6445 6.1094 6.1055 2.5391 1.457 5.4219 2.2188 8.3516 2.2031h82.309c5.9531 0 11.461-3.1641 14.461-8.3047 3.0039-5.1445 3.0469-11.492 0.11719-16.68l-41.152-72.863c-1.9531-3.4609-5.0742-6.1133-8.8047-7.4844-3.7266-1.3711-7.8242-1.3711-11.555 0-3.7266 1.3711-6.8477 4.0234-8.8008 7.4844l-41.156 72.863c-1.4531 2.543-2.2109 5.4258-2.1914 8.3555 0.023437 2.9297 0.82031 5.8008 2.3125 8.3203zm9.5469-11.215 41.152-72.863c1-1.7734 2.8789-2.8711 4.9141-2.8711 2.0391 0 3.918 1.0977 4.918 2.8711l41.152 72.863c0.98828 1.75 0.97266 3.8906-0.039062 5.625-1.0117 1.7305-2.8711 2.7969-4.875 2.7969h-82.309c-2.0078 0-3.8633-1.0664-4.875-2.7969-1.0117-1.7344-1.0273-3.875-0.042968-5.625z" fill="#fff"/>
 <g clip-path="url(#a)">
  <path d="m596.35 213.21h-74.418c-4.3555 0.003907-8.5352 1.7383-11.617 4.8203-3.082 3.082-4.8164 7.2617-4.8203 11.617v74.422c0.003906 4.3555 1.7383 8.5352 4.8203 11.617 3.082 3.082 7.2617 4.8164 11.617 4.8203h74.418c4.3594-0.003906 8.5391-1.7383 11.621-4.8203 3.082-3.082 4.8125-7.2617 4.8203-11.617v-74.422c-0.007813-4.3555-1.7383-8.5352-4.8203-11.617-3.082-3.082-7.2617-4.8164-11.621-4.8203zm5.3398 90.859c0 2.9453-2.3906 5.3359-5.3398 5.3359h-74.418c-2.9453 0-5.3359-2.3906-5.3359-5.3359v-74.422c0-2.9453 2.3906-5.3359 5.3359-5.3359h74.418c2.9492 0 5.3398 2.3906 5.3398 5.3359z" fill="#fff"/>
 </g>
 <path d="m318.48 527.7 17.758-22.25c2.7773-3.5391 4.0547-8.0234 3.5664-12.492-0.49219-4.4688-2.7109-8.5703-6.1875-11.422-3.5781-2.7383-8.0742-3.9922-12.555-3.5039-4.4766 0.49219-8.5977 2.6914-11.496 6.1406-6.3828 8.3672-26.238 32.898-26.238 32.898-2.4219 3.0156-3.7422 6.7656-3.7422 10.633 0 3.8711 1.3203 7.6211 3.7422 10.637 0 0 19.809 24.457 26.164 32.801 2.875 3.4766 6.9805 5.7109 11.465 6.2305 4.4805 0.51953 8.9922-0.71484 12.586-3.4453 3.5039-2.8438 5.7539-6.9492 6.2578-11.438 0.50781-4.4844-0.77344-8.9883-3.5586-12.543zm8.0508 37.613c-2.6055 1.8828-6.2188 1.4453-8.3008-1.0039-6.3516-8.3984-26.219-32.91-26.219-32.91-1.7422-2.1719-1.7422-5.2617 0-7.4336 0 0 19.883-24.621 26.309-32.984 2.1211-2.4102 5.7422-2.7812 8.3086-0.85156 2.5469 2.0703 2.9648 5.7969 0.94141 8.3789l-20.508 25.711c-1.6172 2.0234-1.6172 4.8984 0 6.9219l20.508 25.707c2.0352 2.6211 1.5703 6.3984-1.0391 8.4492z" fill="#fff"/>
 <path d="m442.43 484.23c-3.793-4.7734-9.8398-7.1641-15.867-6.2656-6.0312 0.89453-11.125 4.9375-13.363 10.609-2.2383 5.668-1.2812 12.102 2.5078 16.875 4.5703 5.4609 17.789 22.23 17.789 22.23l-17.789 22.215c-2.7812 3.5312-4.0664 8.0156-3.5859 12.484 0.48437 4.4727 2.7031 8.5742 6.1758 11.43 3.5703 2.7539 8.0664 4.0195 12.547 3.5352 4.4805-0.48047 8.6016-2.6758 11.504-6.125 6.4062-8.3594 26.316-32.891 26.316-32.891 2.4336-3.0156 3.7617-6.7773 3.7617-10.656 0-3.875-1.3281-7.6367-3.7617-10.656 0 0-19.887-24.426-26.234-32.785zm17.562 47.164s-19.957 24.609-26.391 32.984c-2.1289 2.3984-5.7383 2.7656-8.3047 0.83984-2.5391-2.0742-2.957-5.8008-0.92969-8.3828l20.559-25.695c1.6211-2.0273 1.6211-4.9062 0-6.9336 0 0-15.379-19.422-20.633-25.793-0.97656-1.2461-1.4141-2.8281-1.2227-4.3984 0.19141-1.5664 1-2.9961 2.2461-3.9727 2.5938-2.0273 6.3398-1.5703 8.3711 1.0234 6.3906 8.3672 26.312 32.887 26.312 32.887 1.75 2.1719 1.7461 5.2734-0.007813 7.4414z" fill="#fff"/>
 <path d="m387.34 478.29c-4.375-1.1094-9.0078-0.39453-12.84 1.9766-3.8359 2.3711-6.5469 6.1953-7.5117 10.602l-0.03125 0.125s-11.496 49.176-15.039 65.629c-4.7695 22.148 27.789 29.797 33.223 7.7695 4.0469-16.414 15.102-65.902 15.102-65.902 1.0547-4.3945 0.27344-9.0312-2.1602-12.844-2.4336-3.8086-6.3125-6.4648-10.742-7.3555zm2.0547 17.84c-0.003906 0-11.316 49.328-15.078 65.777-0.67969 2.7305-3.1367 4.6445-5.9531 4.6289-1.7617-0.11328-3.3867-0.98047-4.4727-2.375-1.082-1.3945-1.5156-3.1836-1.1953-4.918 4.3359-16.281 15.059-65.703 15.059-65.703 0.73047-3.1992 3.9062-5.207 7.1094-4.4961 3.1992 0.71484 5.2266 3.8789 4.5273 7.0859z" fill="#fff"/>
</svg>
