<?xml version="1.0" encoding="UTF-8"?>
<svg width="752pt" height="752pt" version="1.1" viewBox="140 140 450 450" xmlns="http://www.w3.org/2000/svg">
 <g fill="#fff">
  <path d="m189.03 419.98 10.109 5.5273c9.293 5.082 16.891 12.68 21.977 21.977l5.5273 10.109c0.83203 1.5195 2.4258 2.4648 4.1562 2.4648s3.3242-0.94531 4.1562-2.4609l5.5273-10.109c5.082-9.293 12.68-16.891 21.977-21.977l10.109-5.5273c1.5195-0.83203 2.4609-2.4219 2.4609-4.1562 0-1.7305-0.94531-3.3242-2.4609-4.1562l-10.109-5.5273c-9.293-5.0859-16.895-12.684-21.977-21.977l-5.5273-10.109c-1.6602-3.0391-6.6523-3.0391-8.3125 0l-5.5273 10.109c-5.082 9.293-12.68 16.891-21.977 21.977l-10.109 5.5273c-1.5195 0.82812-2.4609 2.4219-2.4609 4.1562 0 1.7305 0.94141 3.3242 2.4609 4.1523zm14.656-5.5273c10.883-5.9531 19.785-14.855 25.738-25.738l1.375-2.5117 1.375 2.5117c5.9531 10.883 14.855 19.785 25.738 25.738l2.5117 1.375-2.5117 1.375c-10.883 5.9531-19.785 14.855-25.738 25.738l-1.375 2.5117-1.375-2.5117c-5.9531-10.883-14.855-19.785-25.738-25.738l-2.5117-1.375z"/>
  <path d="m562.97 399.77-10.109-5.5273c-9.293-5.082-16.891-12.68-21.977-21.977l-5.5273-10.109c-1.6602-3.0391-6.6523-3.0391-8.3125 0l-5.5273 10.109c-5.082 9.293-12.68 16.891-21.977 21.977l-10.109 5.5273c-1.5195 0.83203-2.4609 2.4219-2.4609 4.1562 0 1.7305 0.94531 3.3242 2.4609 4.1562l10.109 5.5273c9.293 5.082 16.891 12.68 21.977 21.977l5.5273 10.109c0.83203 1.5195 2.4219 2.4609 4.1562 2.4609 1.7305 0 3.3242-0.94531 4.1562-2.4609l5.5273-10.109c5.082-9.293 12.68-16.891 21.977-21.977l10.109-5.5273c1.5195-0.83203 2.4609-2.4258 2.4609-4.1602 0-1.7305-0.94141-3.3242-2.4609-4.1523zm-14.656 5.5273c-10.883 5.9531-19.785 14.855-25.738 25.738l-1.375 2.5117-1.375-2.5117c-5.9531-10.883-14.855-19.785-25.738-25.738l-2.5117-1.375 2.5117-1.375c10.883-5.9531 19.785-14.855 25.738-25.738l1.375-2.5117 1.375 2.5117c5.9531 10.883 14.855 19.785 25.738 25.738l2.5117 1.375z"/>
  <path d="m517.65 251.25c0.54688 0.035156 1.0977 0.050781 1.6406 0.050781 6.2109 0 12.137-2.2422 16.836-6.4062 10.539-9.3398 11.562-25.562 2.2812-36.164-4.5078-5.1484-10.742-8.2188-17.551-8.6523-6.8164-0.4375-13.367 1.8281-18.48 6.3555-10.539 9.3359-11.562 25.559-2.2812 36.16 4.5117 5.1523 10.746 8.2266 17.555 8.6562zm-8.9922-37.723c2.9531-2.6172 6.6719-4.0273 10.574-4.0273 0.34375 0 0.68359 0.011718 1.0273 0.03125 4.2734 0.27344 8.1875 2.2031 11.02 5.4375 5.8633 6.6953 5.2148 16.938-1.4375 22.836-3.2109 2.8438-7.3242 4.2539-11.598 3.9922-4.2773-0.26953-8.1914-2.2031-11.023-5.4375-5.8594-6.6953-5.2148-16.938 1.4375-22.832z"/>
  <path d="m226.73 209.05c-6.8359-0.42969-13.367 1.8242-18.48 6.3555-10.543 9.3398-11.566 25.562-2.2812 36.16 4.5078 5.1484 10.738 8.2188 17.551 8.6523 0.55078 0.035156 1.0977 0.054688 1.6445 0.054688 6.2109 0 12.137-2.2422 16.836-6.4062 10.539-9.3398 11.562-25.562 2.2812-36.164-4.5117-5.1484-10.746-8.2227-17.551-8.6523zm8.9844 37.727c-3.2109 2.8438-7.3359 4.2383-11.602 3.9922-4.2734-0.27344-8.1875-2.2031-11.02-5.4375-5.8633-6.6953-5.2188-16.938 1.4375-22.832 2.9531-2.6172 6.6719-4.0273 10.574-4.0273 0.34375 0 0.68359 0.011719 1.0273 0.03125 4.2734 0.27344 8.1875 2.2031 11.02 5.4375 5.8594 6.6953 5.2148 16.938-1.4375 22.836z"/>
  <path d="m489.68 300.06c0-31.246-13.062-61.441-35.84-82.852-23.098-21.707-53.316-32.566-85.086-30.605-57.414 3.5664-104.13 51.43-106.35 108.96-1.1797 30.68 9.6992 59.883 30.641 82.223 15.918 16.984 25.008 39.738 26.055 64.453h-1.5039c-10.449 0-18.949 8.5-18.949 18.949 0 8.582 5.7734 15.77 13.617 18.09v40.52c0 9.4805 7.7109 17.188 17.188 17.188h0.94922v6.332c0 12.184 9.9102 22.09 22.09 22.09h47.023c12.184 0 22.09-9.9102 22.09-22.09v-6.332h0.94531c9.4805 0 17.188-7.7109 17.188-17.188v-40.52c7.8438-2.3203 13.617-9.5078 13.617-18.09 0-10.449-8.5-18.949-18.949-18.949h-1.5c1.0586-24.609 10.246-47.469 26.336-64.758 19.625-21.098 30.438-48.59 30.438-77.426zm-77.551 243.27c0 6.957-5.6602 12.617-12.617 12.617h-47.023c-6.957 0-12.617-5.6602-12.617-12.617v-6.332h72.262zm10.418-15.809h-93.098c-4.2539 0-7.7148-3.4609-7.7148-7.7148v-39.664h108.53v39.664c0.003906 4.2539-3.4609 7.7148-7.7148 7.7148zm21.332-66.324c0 5.2266-4.2539 9.4766-9.4805 9.4766h-116.8c-5.2266 0-9.4766-4.25-9.4766-9.4766 0-5.2266 4.25-9.4766 9.4766-9.4766h116.8c5.2266 0 9.4766 4.25 9.4766 9.4766zm-21.391-137.11c0 25-18.332 45.629-41.75 48.102v-14.27l41.395-39.316c0.20703 1.8398 0.35547 3.6719 0.35547 5.4844zm-41.75 20.77v-35.031l28.008-26.605c4.668 7.8789 8.6367 16.199 11.094 24.5zm0-48.094v-50.438c6.168 6.6797 14.934 16.883 22.871 28.711zm-9.4727 0-22.598-21.465c7.8555-11.723 16.492-21.965 22.598-28.742zm-27.742-13.289 27.742 26.352v35.031l-38.988-37.031c2.5117-8.168 6.5352-16.449 11.246-24.352zm-13.641 35.141 41.383 39.305v14.27c-23.418-2.4766-41.75-23.105-41.75-48.102 0-1.7969 0.14453-3.6289 0.36719-5.4727zm93.547 123.64h-42.691v-60.59c28.641-2.4961 51.223-27.344 51.223-57.574 0-42.582-50.555-90.844-52.703-92.879-1.8438-1.7422-4.7461-1.7188-6.5625 0.054687-2.1523 2.0977-52.652 51.895-52.652 92.824 0 30.23 22.582 55.078 51.223 57.574v60.59h-42.691c-1.0586-27.137-11.051-52.191-28.617-70.934-19.195-20.477-29.168-47.246-28.086-75.379 2.0352-52.734 44.848-96.602 97.469-99.871 29.117-1.7891 56.84 8.1562 78.012 28.055 21.188 19.914 32.855 46.887 32.855 75.949 0 26.43-9.9102 51.637-27.902 70.973-17.723 19.039-27.805 44.191-28.875 71.207z"/>
 </g>
</svg>
