<?xml version="1.0" encoding="UTF-8"?>
<svg width="752pt" height="752pt" version="1.1" viewBox="120 120 522 522" xmlns="http://www.w3.org/2000/svg">
 <defs>
  <clipPath id="d">
   <path d="m139.21 233h18.789v5h-18.789z"/>
  </clipPath>
  <clipPath id="c">
   <path d="m392 139.21h44v43.789h-44z"/>
  </clipPath>
  <clipPath id="b">
   <path d="m468 523h126v89.793h-126z"/>
  </clipPath>
  <clipPath id="a">
   <path d="m139.21 186h473.58v405h-473.58z"/>
  </clipPath>
 </defs>
 <path d="m193.2 274.75c4.9805 4.1992 7.8398 10.355 7.8398 16.887v8.8477c0 1.1172 0.90625 2.0234 2.0234 2.0234h42.32c1.1172 0 2.0234-0.90625 2.0234-2.0234v-8.8438c0-6.5312 2.8594-12.688 7.8398-16.887 11.43-9.6367 17.984-22.977 17.984-36.594 0-26.191-22.441-48.316-49.008-48.316-26.562 0-49.008 22.125-49.008 48.316 0 13.613 6.5547 26.953 17.984 36.59zm31.023-80.859c24.371 0 44.961 20.273 44.961 44.27 0 12.422-6.0312 24.633-16.547 33.5-5.8945 4.9727-9.2773 12.254-9.2773 19.98v6.8242l-38.273-0.003906v-6.8242c0-7.7266-3.3828-15.008-9.2773-19.98-10.516-8.8672-16.547-21.078-16.547-33.5 0-23.996 20.59-44.266 44.961-44.266z" fill="#fff"/>
 <path d="m193.48 238.54 15.477 11.84c2.0547 1.625 4.5703-1.6484 2.4609-3.2148l-13.379-10.23 13.375-10.234c0.88672-0.67969 1.0547-1.9492 0.37891-2.8359-0.67969-0.88672-1.9492-1.0547-2.8359-0.37891l-15.477 11.844c-1.0469 0.75781-1.0469 2.4531 0 3.2109z" fill="#fff"/>
 <path d="m236.66 250c0.68359 0.89062 1.957 1.0508 2.8359 0.37891l15.477-11.84c1.0469-0.75781 1.0469-2.457 0-3.2148l-15.477-11.84c-0.88672-0.67969-2.1562-0.51172-2.8359 0.37891-0.67969 0.88672-0.51172 2.1562 0.37891 2.8359l13.375 10.234-13.379 10.227c-0.88672 0.68359-1.0547 1.9531-0.375 2.8398z" fill="#fff"/>
 <path d="m221.05 250.82c1.0625 0.25 2.1797-0.42578 2.4258-1.5234l5.4453-23.836c0.25-1.0898-0.43359-2.1758-1.5234-2.4258-1.0898-0.24609-2.1758 0.43359-2.4258 1.5234l-5.4453 23.836c-0.25 1.0898 0.43359 2.1758 1.5234 2.4258z" fill="#fff"/>
 <path d="m224.22 169.47c1.1172 0 2.0234-0.90625 2.0234-2.0234v-14.656c0-1.1172-0.90625-2.0234-2.0234-2.0234-1.1172 0-2.0234 0.90625-2.0234 2.0234v14.656c0 1.1172 0.90625 2.0234 2.0234 2.0234z" fill="#fff"/>
 <path d="m174.49 188.85c1.832 1.8828 4.7422-1.0352 2.8594-2.8633l-10.383-10.367c-0.79297-0.78906-2.0703-0.78906-2.8633 0.003906-0.78906 0.79297-0.78906 2.0703 0.003906 2.8633z" fill="#fff"/>
 <g clip-path="url(#d)">
  <path d="m155.92 237.66c1.1172 0 2.0234-0.90625 2.0234-2.0234 0-1.1172-0.90625-2.0234-2.0234-2.0234h-14.684c-1.1172 0-2.0234 0.90625-2.0234 2.0234 0 1.1172 0.90625 2.0234 2.0234 2.0234z" fill="#fff"/>
 </g>
 <path d="m292.53 237.66h14.684c1.1172 0 2.0234-0.90625 2.0234-2.0234 0-1.1172-0.90625-2.0234-2.0234-2.0234h-14.684c-1.1172 0-2.0234 0.90625-2.0234 2.0234 0 1.1172 0.90625 2.0234 2.0234 2.0234z" fill="#fff"/>
 <path d="m272.52 189.44c0.51562 0 1.0352-0.19922 1.4297-0.58984l10.383-10.363c0.79297-0.78906 0.79297-2.0703 0.003906-2.8633-0.78906-0.78906-2.0703-0.79297-2.8633-0.003906l-10.383 10.363c-1.293 1.2031-0.30078 3.5195 1.4297 3.457z" fill="#fff"/>
 <g clip-path="url(#c)">
  <path d="m393.1 162.59 12.117 6.5156 6.6211 11.906c0.70703 1.3672 2.832 1.3672 3.5352 0l6.625-11.906 12.113-6.5156c1.3984-0.69531 1.3984-2.8672 0-3.5625l-12.113-6.5156-6.625-11.906c-0.70703-1.3672-2.832-1.3672-3.5352 0l-6.6211 11.906-12.117 6.5156c-1.3984 0.69531-1.3984 2.8672 0 3.5625zm14.555-6.7969c0.33984-0.18359 0.62109-0.46094 0.80859-0.79687l5.1406-9.2461 5.1445 9.2461c0.1875 0.33594 0.46875 0.61328 0.80859 0.79687l9.3203 5.0156-9.3203 5.0117c-0.33984 0.18359-0.62109 0.46094-0.80859 0.79688l-5.1445 9.2461-5.1406-9.2461c-0.1875-0.33594-0.46875-0.61328-0.80859-0.79688l-9.3242-5.0117z" fill="#fff"/>
 </g>
 <path d="m453.22 588.79c0 6.7422-10.117 6.7422-10.117 0 0-6.7461 10.117-6.7461 10.117 0" fill="#fff"/>
 <g clip-path="url(#b)">
  <path d="m592.98 566.53-61.289-42.211c-1.2734-0.9375-3.2227 0.085938-3.1719 1.668v19.598h-28.836c-1.1172 0-2.0234 0.90625-2.0234 2.0234 0 1.1172 0.90625 2.0234 2.0234 2.0234h30.859c1.1172 0 2.0234-0.90625 2.0234-2.0234v-17.77l55.699 38.359-55.699 38.359v-17.77c0-1.1172-0.90625-2.0234-2.0234-2.0234h-60.281c-1.1172 0-2.0234 0.90625-2.0234 2.0234 0 1.1172 0.90625 2.0234 2.0234 2.0234h58.258v19.598c-0.050781 1.582 1.8984 2.6055 3.1719 1.668l61.289-42.211c1.1523-0.75 1.1523-2.5859 0-3.3359z" fill="#fff"/>
 </g>
 <g clip-path="url(#a)">
  <path d="m611.68 292.94-19.855-6.8828c5.5156-53.066-37.332-100.22-90.762-99.934-42.844 0-79.906 29.91-89.043 71.426-5-1.6445-10.078-3.0625-15.227-4.2305v-24.855c0.050781-1.5625-1.8633-2.5898-3.1406-1.6875l-33.941 22.457c-0.22656-0.089844-0.47266-0.14062-0.73438-0.14062-28.379 0-56.504 7.1367-81.332 20.645-2.332 1.2227-0.33594 4.8477 1.9336 3.5547 22.684-12.34 48.188-19.219 74.078-20.051l-31.586 20.895c-1.1953 0.74219-1.1953 2.6328 0 3.375l20.801 13.762c-30.215 3.7461-58.074 17.992-78.953 40.5-22.305 24.043-34.586 55.359-34.586 88.18 0 60.395 41.492 111.28 97.461 125.63h-77.395c-36.348-31.762-57.188-77.508-57.188-125.63 0-32.527 9.4062-64.074 27.207-91.223 0.61328-0.93359 0.35156-2.1875-0.58203-2.8008-0.9375-0.61328-2.1875-0.35156-2.8008 0.58203-18.23 27.812-27.867 60.125-27.867 93.441 0 47.777 20.047 93.262 55.176 125.63h-101.35c-1.8945-0.042969-2.7266 2.5703-1.3398 3.7539l21.473 18.988-21.469 18.941c-1.4219 1.168-0.44141 3.6523 1.3945 3.543h216.93c94.188 0 170.82-76.648 170.82-170.86 0-39.203-13.668-77.531-38.48-107.91-11.922-14.602-26.145-27.062-41.934-36.949 1.1094-27.398 24.055-49.508 51.68-49.508 27.059 0 49.145 20.363 51.527 46.879l-18.906-6.5508c-1.4609-0.55859-3.0586 0.91406-2.625 2.4141l18.707 72.836c0.3125 1.375 2.1016 1.9922 3.1953 1.0977l59.285-45.805c1.1992-1.3203 0.12891-3.2695-0.57031-3.5117zm-299 243.79 4.7188-11.395c0.42969-1.0312-0.0625-2.2148-1.0938-2.6445-1.0312-0.42969-2.2148 0.0625-2.6445 1.0938l-4.7148 11.379c-13.926-6.0742-26.543-14.598-37.305-25.031l14.371-14.371c0.78906-0.78906 0.78906-2.0703 0-2.8594-0.78906-0.78906-2.0703-0.78906-2.8594 0l-14.367 14.367c-10.422-10.77-18.938-23.387-25.004-37.316l11.352-4.7031c1.0312-0.42969 1.5234-1.6133 1.0938-2.6445-0.42969-1.0312-1.6094-1.5234-2.6445-1.0938l-11.363 4.707c-5.4375-13.68-8.5352-28.535-8.8047-44.07h20.43c1.1172 0 2.0234-0.90625 2.0234-2.0234s-0.90625-2.0234-2.0234-2.0234l-20.438 0.007813c0.22656-15.469 3.3125-30.344 8.7734-44.086l11.398 4.7227c2.3906 1.0469 4-2.7656 1.5469-3.7383l-11.391-4.7188c6.0508-13.902 14.547-26.559 24.957-37.383l14.453 14.453c1.8281 1.8828 4.7461-1.0312 2.8594-2.8594l-14.457-14.457c10.746-10.484 23.352-19.082 37.281-25.211l4.8242 11.648c0.98437 2.4492 4.7734 0.85547 3.7383-1.5469l-4.832-11.668c11.172-4.4883 23.133-7.418 35.625-8.4805l8.5703 5.6719v14.742c0 1.1172 0.90625 2.0234 2.0234 2.0234 1.1172 0 2.0234-0.90625 2.0234-2.0234v-12.066l32.852 21.734c1.2734 0.90234 3.1914-0.125 3.1406-1.6875v-23.059c2.8125 0.88672 5.5664 1.8867 8.2812 2.9609l-4.9102 11.852c-1.0352 2.4062 2.7539 3.9961 3.7383 1.5469l4.9062-11.848c14.07 6.1055 26.707 14.703 37.449 25.16l-14.707 14.711c-1.8828 1.8281 1.0312 4.7461 2.8594 2.8594l14.695-14.699c10.488 10.879 19 23.586 25.051 37.488l-11.73 4.8594c-2.4531 0.97266-0.83984 4.7852 1.5469 3.7383l11.73-4.8594c5.5078 13.852 8.6016 28.793 8.8281 44.223h-20.805c-1.1172 0-2.0234 0.90625-2.0234 2.0234 0 1.1172 0.90625 2.0234 2.0234 2.0234h20.828c-0.26953 15.586-3.3867 30.492-8.8633 44.211l-11.707-4.8477c-1.0352-0.42969-2.2148 0.0625-2.6445 1.0938-0.42969 1.0312 0.0625 2.2148 1.0938 2.6445l11.688 4.8398c-6.1016 13.957-14.664 26.602-25.141 37.375l-14.57-14.57c-0.78906-0.78906-2.0703-0.78906-2.8594 0s-0.78906 2.0703 0 2.8594l14.566 14.566c-10.805 10.426-23.469 18.938-37.441 24.98l-4.7734-11.527c-0.42969-1.0312-1.6094-1.5234-2.6445-1.0938-1.0312 0.42578-1.5234 1.6094-1.0938 2.6445l4.7773 11.535c-13.707 5.4102-28.586 8.4648-44.141 8.6875v-20.484c0-1.1172-0.90625-2.0234-2.0234-2.0234-1.1172 0-2.0234 0.90625-2.0234 2.0234v20.48c-15.531-0.27344-30.391-3.375-44.074-8.8242zm-95.574 33.109c0.90234-0.76172 0.90234-2.2695 0-3.0312l-19.43-17.18h44.473l21.141 18.695-20.84 18.438h-44.473zm308.65-149.89c0 91.98-74.812 166.81-166.77 166.81h-59.848l19.129-16.922c0.90234-0.76172 0.90234-2.2695 0-3.0312l-19.426-17.18h60.145c71.488 0 129.64-58.176 129.64-129.68 0-28.625-9.1406-55.766-26.434-78.48-16.734-21.984-40.477-38.328-66.855-46.023-1.25-0.40234-2.625 0.63281-2.5898 1.9414v22.023l-65.891-43.594 65.891-43.594v22.719c0 0.95312 0.66406 1.7773 1.5938 1.9766 76.145 16.512 131.41 85.074 131.41 163.03z" fill="#fff"/>
 </g>
 <path d="m358.78 445.43c3.1172 0 6.1016-0.57031 8.8594-1.6055l29.57 31.227c3.5625 3.7656 8.3633 6.1758 13.508 6.793 4.2266 0.63281 8.2109-3.3555 7.5547-7.5938 0-0.007813-0.015626-0.11719-0.015626-0.125-0.59375-4.7344-2.6406-9.0664-5.9219-12.527l-30.16-31.852c1.2227-2.9648 1.8984-6.207 1.8984-9.6055 0-10.352-6.25-19.262-15.176-23.172v-43.934c0-5.0352-1.7305-9.9688-4.8789-13.902-2.5195-3.3281-7.957-3.3281-10.477 0-3.1445 3.9297-4.8789 8.8672-4.8789 13.902v43.934c-8.9219 3.9102-15.176 12.824-15.176 23.172 0.003907 13.941 11.348 25.289 25.293 25.289zm0-46.535c11.715 0 21.246 9.5312 21.246 21.246 0 11.715-9.5312 21.246-21.246 21.246s-21.246-9.5312-21.246-21.246c0.003906-11.719 9.5312-21.246 21.246-21.246z" fill="#fff"/>
 <path d="m350.66 417.38c0 5.0547-6.9414 5.0547-6.9414 0 0-5.0586 6.9414-5.0586 6.9414 0" fill="#fff"/>
 <path d="m373.84 417.38c0 5.0547-6.9414 5.0547-6.9414 0 0-5.0586 6.9414-5.0586 6.9414 0" fill="#fff"/>
 <path d="m358.78 432.76c-3.75 0-6.8008-3.0352-6.8008-6.7656v-1.1367c0-1.1172 0.90625-2.0234 2.0234-2.0234 1.1172 0 2.0234 0.90625 2.0234 2.0234v1.1367c0 1.5 1.2344 2.7188 2.7539 2.7188 1.5156 0 2.7539-1.2188 2.7539-2.7188v-1.1367c0-1.1172 0.90625-2.0234 2.0234-2.0234 1.1172 0 2.0234 0.90625 2.0234 2.0234v1.1367c0 3.7266-3.0508 6.7656-6.8008 6.7656z" fill="#fff"/>
</svg>
