<?xml version="1.0" encoding="UTF-8"?>
<svg width="752pt" height="752pt" version="1.1" viewBox="125 125 500 500" xmlns="http://www.w3.org/2000/svg">
 <defs>
  <clipPath id="a">
   <path d="m139.21 141h473.58v269h-473.58z"/>
  </clipPath>
 </defs>
 <path d="m362.52 307.68c-0.40625 0-0.82031-0.12109-1.1758-0.375l-14.855-10.605c-0.53125-0.37891-0.84766-0.99219-0.84766-1.6484 0-0.65234 0.31641-1.2656 0.84766-1.6484l14.855-10.605c0.90625-0.64844 2.1719-0.4375 2.8242 0.47266 0.64844 0.91016 0.4375 2.1719-0.47266 2.8242l-12.547 8.957 12.547 8.957c0.91016 0.64844 1.1211 1.9141 0.47266 2.8242-0.39453 0.55469-1.0156 0.84766-1.6484 0.84766z" fill="#fff"/>
 <path d="m389.48 307.68c-0.63281 0-1.2539-0.29297-1.6484-0.84766-0.64844-0.91016-0.4375-2.1719 0.47266-2.8242l12.547-8.957-12.547-8.957c-0.91016-0.64844-1.1211-1.9141-0.47266-2.8242 0.65234-0.91016 1.9141-1.1211 2.8242-0.47266l14.855 10.605c0.53125 0.37891 0.84766 0.99219 0.84766 1.6484 0 0.65234-0.31641 1.2656-0.84766 1.6484l-14.855 10.605c-0.35938 0.25391-0.76953 0.375-1.1758 0.375z" fill="#fff"/>
 <path d="m373.39 307.75c-0.16016 0-0.32031-0.019531-0.48438-0.058594-1.0859-0.26562-1.75-1.3594-1.4844-2.4453l5.2266-21.352c0.26562-1.0859 1.3633-1.7539 2.4453-1.4844 1.0859 0.26562 1.75 1.3594 1.4844 2.4453l-5.2266 21.352c-0.22266 0.92578-1.0508 1.543-1.9609 1.543z" fill="#fff"/>
 <path d="m203.61 383.75c-0.40625 0-0.82031-0.12109-1.1758-0.37891l-14.852-10.605c-0.53125-0.37891-0.84766-0.99219-0.84766-1.6445s0.31641-1.2656 0.84766-1.6484l14.855-10.605c0.90625-0.64844 2.1719-0.4375 2.8242 0.47266 0.64844 0.91016 0.4375 2.1719-0.47266 2.8242l-12.547 8.957 12.547 8.9609c0.91016 0.64844 1.1211 1.9141 0.46875 2.8242-0.39453 0.54688-1.0156 0.84375-1.6484 0.84375z" fill="#fff"/>
 <path d="m230.57 383.75c-0.63281 0-1.2539-0.29297-1.6484-0.84766-0.64844-0.91016-0.4375-2.1719 0.46875-2.8242l12.547-8.9609-12.547-8.957c-0.91016-0.64844-1.1211-1.9141-0.47266-2.8242 0.65234-0.91016 1.9141-1.1211 2.8242-0.47266l14.855 10.605c0.53125 0.37891 0.84766 0.99219 0.84766 1.6484 0 0.65234-0.31641 1.2656-0.84766 1.6445l-14.855 10.605c-0.35547 0.25781-0.76562 0.38281-1.1719 0.38281z" fill="#fff"/>
 <path d="m214.47 383.82c-0.16016 0-0.32031-0.019531-0.48438-0.058593-1.0859-0.26562-1.75-1.3594-1.4844-2.4453l5.2266-21.348c0.26562-1.0859 1.3633-1.75 2.4453-1.4844 1.0859 0.26562 1.75 1.3594 1.4844 2.4453l-5.2266 21.348c-0.22266 0.92578-1.0508 1.543-1.9609 1.543z" fill="#fff"/>
 <path d="m519.23 383.75c-0.40625 0-0.81641-0.12109-1.1719-0.37891l-14.855-10.605c-0.53125-0.37891-0.84766-0.99219-0.84766-1.6445s0.31641-1.2656 0.84766-1.6484l14.855-10.605c0.91016-0.64844 2.1719-0.4375 2.8242 0.47266 0.64844 0.91016 0.4375 2.1719-0.47266 2.8242l-12.547 8.957 12.547 8.9609c0.91016 0.64844 1.1211 1.9141 0.47266 2.8242-0.39844 0.54688-1.0234 0.84375-1.6523 0.84375z" fill="#fff"/>
 <path d="m546.19 383.75c-0.63281 0-1.2539-0.29297-1.6484-0.84766-0.64844-0.91016-0.4375-2.1719 0.47266-2.8242l12.547-8.9609-12.547-8.957c-0.91016-0.64844-1.1211-1.9141-0.47266-2.8242 0.64844-0.91016 1.9141-1.1211 2.8242-0.47266l14.855 10.605c0.53125 0.37891 0.84766 0.99219 0.84766 1.6484 0 0.65234-0.31641 1.2656-0.84766 1.6445l-14.855 10.605c-0.35938 0.25781-0.76953 0.38281-1.1758 0.38281z" fill="#fff"/>
 <path d="m530.1 383.82c-0.16016 0-0.32031-0.019531-0.48438-0.058593-1.0859-0.26562-1.75-1.3594-1.4844-2.4453l5.2305-21.348c0.26562-1.0859 1.3672-1.7539 2.4453-1.4844 1.0859 0.26562 1.75 1.3594 1.4844 2.4453l-5.2305 21.348c-0.22656 0.92578-1.0508 1.543-1.9609 1.543z" fill="#fff"/>
 <path d="m476.21 376.72c-1.1172 0-2.0234-0.90625-2.0234-2.0234 0-24.137 18.781-44.496 42.754-46.352 1.1172-0.078125 2.0859 0.74609 2.1719 1.8633 0.085937 1.1133-0.74609 2.0859-1.8633 2.1719-21.879 1.6953-39.02 20.281-39.02 42.316 0.003906 1.1172-0.90234 2.0234-2.0195 2.0234z" fill="#fff"/>
 <path d="m540.43 481.54h-44.57c-1.1172 0-2.0234-0.90625-2.0234-2.0234 0-1.1172 0.90625-2.0234 2.0234-2.0234h44.57c1.1172 0 2.0234 0.90625 2.0234 2.0234 0 1.1172-0.90625 2.0234-2.0234 2.0234z" fill="#fff"/>
 <path d="m461.33 481.54h-172.44c-1.1172 0-2.0234-0.90625-2.0234-2.0234 0-1.1172 0.90625-2.0234 2.0234-2.0234h172.44c1.1172 0 2.0234 0.90625 2.0234 2.0234 0 1.1172-0.90625 2.0234-2.0234 2.0234z" fill="#fff"/>
 <path d="m540.43 513.71h-150.68c-1.1172 0-2.0234-0.90625-2.0234-2.0234 0-1.1172 0.90625-2.0234 2.0234-2.0234h150.68c1.1172 0 2.0234 0.90625 2.0234 2.0234 0 1.1172-0.90625 2.0234-2.0234 2.0234z" fill="#fff"/>
 <path d="m340.91 513.71h-52.02c-1.1172 0-2.0234-0.90625-2.0234-2.0234 0-1.1172 0.90625-2.0234 2.0234-2.0234h52.02c1.1172 0 2.0234 0.90625 2.0234 2.0234 0 1.1172-0.90625 2.0234-2.0234 2.0234z" fill="#fff"/>
 <path d="m254.36 481.54h-42.785c-1.1172 0-2.0234-0.90625-2.0234-2.0234 0-1.1172 0.90625-2.0234 2.0234-2.0234h42.785c1.1172 0 2.0234 0.90625 2.0234 2.0234 0 1.1172-0.90625 2.0234-2.0234 2.0234z" fill="#fff"/>
 <path d="m540.43 546.61h-44.57c-1.1172 0-2.0234-0.90625-2.0234-2.0234 0-1.1172 0.90625-2.0234 2.0234-2.0234h44.57c1.1172 0 2.0234 0.90625 2.0234 2.0234 0 1.1172-0.90625 2.0234-2.0234 2.0234z" fill="#fff"/>
 <path d="m461.33 546.61h-172.44c-1.1172 0-2.0234-0.90625-2.0234-2.0234 0-1.1172 0.90625-2.0234 2.0234-2.0234l172.44-0.003906c1.1172 0 2.0234 0.90625 2.0234 2.0234 0 1.1211-0.90625 2.0273-2.0234 2.0273z" fill="#fff"/>
 <path d="m540.43 578.78h-150.68c-1.1172 0-2.0234-0.90625-2.0234-2.0234 0-1.1172 0.90625-2.0234 2.0234-2.0234h150.68c1.1172 0 2.0234 0.90625 2.0234 2.0234 0 1.1172-0.90625 2.0234-2.0234 2.0234z" fill="#fff"/>
 <path d="m340.91 578.78h-52.02c-1.1172 0-2.0234-0.90625-2.0234-2.0234 0-1.1172 0.90625-2.0234 2.0234-2.0234h52.02c1.1172 0 2.0234 0.90625 2.0234 2.0234 0 1.1172-0.90625 2.0234-2.0234 2.0234z" fill="#fff"/>
 <path d="m254.36 546.61h-42.785c-1.1172 0-2.0234-0.90625-2.0234-2.0234 0-1.1172 0.90625-2.0234 2.0234-2.0234h42.785c1.1172 0 2.0234 0.90625 2.0234 2.0234 0 1.1172-0.90625 2.0234-2.0234 2.0234z" fill="#fff"/>
 <path d="m368.57 446.89c-1.457 0.03125-2.5-1.6289-1.8086-2.9297l14.855-29.762c0.49609-1 1.7148-1.4062 2.7148-0.90625s1.4062 1.7148 0.90625 2.7148l-14.852 29.762c-0.35938 0.71094-1.0742 1.1211-1.8164 1.1211z" fill="#fff"/>
 <path d="m351.92 448.88c-0.43359 0-0.875-0.14062-1.2422-0.42969l-21.605-16.859c-1.0273-0.76172-1.0273-2.4297 0-3.1914l21.605-16.859c0.88281-0.6875 2.1523-0.53125 2.8398 0.35156 0.6875 0.88281 0.53125 2.1523-0.35156 2.8398l-19.562 15.266 19.562 15.266c1.5273 1.1016 0.60156 3.6875-1.2461 3.6172z" fill="#fff"/>
 <path d="m400.08 448.88c-1.8477 0.070312-2.7734-2.5117-1.2461-3.6211l19.562-15.266-19.562-15.266c-0.88281-0.6875-1.0391-1.957-0.35156-2.8398 0.6875-0.88281 1.9609-1.0352 2.8398-0.35156l21.605 16.859c1.0273 0.76172 1.0273 2.4297 0 3.1914l-21.605 16.859c-0.36719 0.29297-0.80859 0.43359-1.2422 0.43359z" fill="#fff"/>
 <path d="m561.58 610.74h-371.16c-1.1172 0-2.0234-0.90625-2.0234-2.0234v-186.02c0-1.1172 0.90625-2.0234 2.0234-2.0234 1.1172 0 2.0234 0.90625 2.0234 2.0234v183.99h367.11v-164.45c0-1.1172 0.90625-2.0234 2.0234-2.0234 1.1172 0 2.0234 0.90625 2.0234 2.0234v166.48c0 1.1172-0.90625 2.0234-2.0234 2.0234z" fill="#fff"/>
 <path d="m566.64 422c0 6.7461-10.121 6.7461-10.121 0s10.121-6.7461 10.121 0" fill="#fff"/>
 <path d="m488.99 194.11h-21.879c-1.5898 0.050781-2.6133-1.9219-1.6562-3.1875l15.59-22.105-15.59-22.109c-0.95703-1.2695 0.066406-3.2422 1.6562-3.1875h21.879c0.65625 0 1.2734 0.32031 1.6562 0.85938l16.41 23.273c0.49219 0.69922 0.49219 1.6328 0 2.332l-16.41 23.273c-0.38281 0.53125-1 0.85156-1.6562 0.85156zm-17.977-4.0469h16.926l14.984-21.25-14.984-21.25h-16.926l14.16 20.082c0.49219 0.69922 0.49219 1.6328 0 2.332z" fill="#fff"/>
 <path d="m543.71 194.11h-21.879c-1.5898 0.050781-2.6133-1.9219-1.6562-3.1875l15.59-22.105-15.59-22.109c-0.95703-1.2695 0.066406-3.2422 1.6562-3.1875h21.879c0.65625 0 1.2734 0.32031 1.6562 0.85938l16.41 23.273c0.49219 0.69922 0.49219 1.6328 0 2.332l-16.41 23.273c-0.38281 0.53125-1 0.85156-1.6562 0.85156zm-17.98-4.0469h16.926l14.984-21.25-14.984-21.25h-16.926l14.16 20.082c0.49219 0.69922 0.49219 1.6328 0 2.332z" fill="#fff"/>
 <path d="m284.9 194.11h-21.883c-0.65625 0-1.2734-0.32031-1.6523-0.85938l-16.41-23.273c-0.49219-0.69922-0.49219-1.6328 0-2.332l16.41-23.273c0.37891-0.53906 0.99609-0.85938 1.6523-0.85938h21.883c1.5898-0.050781 2.6133 1.9219 1.6523 3.1875l-15.59 22.113 15.586 22.105c0.96094 1.2695-0.058594 3.2422-1.6484 3.1914zm-20.832-4.0469h16.93l-14.16-20.082c-0.49219-0.69922-0.49219-1.6328 0-2.332l14.156-20.086h-16.93l-14.984 21.25z" fill="#fff"/>
 <path d="m230.17 194.11h-21.879c-0.65625 0-1.2734-0.32031-1.6523-0.85938l-16.41-23.273c-0.49219-0.69922-0.49219-1.6328 0-2.332l16.41-23.273c0.37891-0.53906 0.99609-0.85938 1.6523-0.85938h21.883c1.5898-0.050781 2.6133 1.9219 1.6523 3.1875l-15.59 22.113 15.59 22.105c0.95703 1.2695-0.066406 3.2422-1.6562 3.1914zm-20.832-4.0469h16.93l-14.16-20.086c-0.49219-0.69922-0.49219-1.6328 0-2.332l14.16-20.082h-16.93l-14.984 21.25z" fill="#fff"/>
 <g clip-path="url(#a)">
  <path d="m612.78 329.03c0-28.504-15.168-54.922-39.668-69.32 2.3906-11.742-0.63672-21.844-9.0234-29.141-1.1094-0.96875-2.582-1.3672-4.0234-1.0977-0.45703 0.085938-0.89062 0.23438-1.293 0.4375-7.1289-8.6758-18.559-12.293-26.562-12.73-10.426-0.5625-23.059 3.9375-30.695 10.957-8.3203 7.6484-11.484 18.637-9.3672 31.664-20.742 12.254-34.758 33.156-38.496 56.605h-28.219c19.328-15.156 30.941-38.832 30.832-63.438 0-26.223-12.738-50.754-34.117-65.852-0.60156-25.387-21.246-45.859-46.547-45.859-25.508 0-46.277 20.797-46.562 46.465-20.863 15.133-33.289 39.438-33.289 65.242-0.11328 24.602 11.504 48.285 30.832 63.438h-33.051c-4.168-21.562-17.309-40.707-36.406-52.227 3.043-10.367 3.3008-23.371-8.2188-33.41-1.457-1.3008-3.6602-1.5547-5.3828-0.65234-16.148-18.047-41.637-15.906-58.062-1.8125-11.391 10.484-11.352 24.777-8.707 36.062-23.18 14.129-37.523 39.59-37.523 66.82-0.88281 41.871 35.996 78.949 77.859 78.152 21.562 0 42.289-9.082 56.984-24.922l200.66 0.007813c0.003906 0.003906 0.007813 0.011719 0.011719 0.015625 15.266 16.062 35.852 24.906 57.965 24.906 43.129 0.94531 80.898-37.277 80.066-80.312zm-431.1-51.668c0.60547-1.1211 2.082-1.457 3.0664-0.64844 1.1875 0.97656 2.1602 2.3984 3.2422 3.9062 0.56641 0.87891 1.7109 1.2734 2.6445 0.8125 1.1016-0.54297 1.4609-1.8945 0.82422-2.9023-0.33594-0.52734-1.3906-2.1289-2.8242-3.6523 0.4375-6.2578 1.8438-12.535 2.6211-15.633 14.16 4.0078 23.879 0.89062 28.793-1.6367-0.26562 0.91406-0.59766 1.8203-0.89844 2.5-0.53125 1.125 0.19922 2.5625 1.4219 2.7969 9.5859 2.082 16.809-3.5312 19.75-6.3867 2.8047 3.2031 4.3047 10.145 4.1914 19.551-0.89062 1.0938-1.5312 2.0664-1.7773 2.457-0.59766 0.94531-0.31641 2.1914 0.625 2.7891 0.94531 0.60156 2.1953 0.32031 2.793-0.625 1-1.3516 1.9805-2.9258 3.2852-3.9844 0.99609-0.80469 2.4688-0.48438 3.0781 0.64062 2.0781 3.8242 0.42188 10.023-2.0938 13.32-0.97266 1.5273-3.1055 2.9922-4.9688 1.6758-0.73047-0.11719-1.4922 0.17969-1.9492 0.8125-0.83984 1.0898-0.22656 2.6562 0.98828 3.1484-2.6797 12.789-14.172 22.234-27.391 22.234-13.223 0-24.711-9.4453-27.391-22.234 1.2734-0.51953 1.8711-2.207 0.87891-3.2852-0.62109-0.72266-1.6719-0.91406-2.5117-0.4375-1.5625 1.168-3.5547-0.89062-4.2969-1.918-2.5273-3.2773-4.1797-9.457-2.1016-13.301zm49.062 42.141v13.23c-1.1562 6.668-6.8711 11.496-13.652 11.496s-12.496-4.8281-13.652-11.496v-13.23c8.2578 4.0938 19.047 4.0938 27.305 0zm-71.578 54.926v2.6445c-10.277-13.059-15.895-29.145-15.887-45.883 0-25.43 13.184-49.23 34.57-62.746 0.54297 1.7852 1.125 3.4648 1.7109 4.9883-4.9531 5.3672-2.6992 14.867 0.98828 19.703 1.5547 2.043 3.3398 3.293 5.1328 3.7148 1.6992 8.5039 6.793 15.738 13.711 20.352v13.812c-22.711 1.6133-40.227 20.316-40.227 43.414zm111.8 7.4062c-13.922 14.918-33.512 23.457-53.879 23.457-20.363 0-39.957-8.5391-53.879-23.457v-7.4102c0-20.988 15.938-37.98 36.586-39.395 2.082 7.7734 9.0859 13.242 17.289 13.242s15.211-5.4688 17.289-13.242c20.648 1.4141 36.586 18.406 36.586 39.395zm4.0469-4.7617v-2.6445c0-23.094-17.516-41.797-40.227-43.414v-13.809c6.918-4.6172 12.016-11.852 13.711-20.355 1.7891-0.42187 3.5742-1.6719 5.1328-3.7148 3.8594-5.0625 6.1719-15.262 0.25391-20.449-0.003906-0.003906-0.011718-0.007812-0.015624-0.011719 0.66406-1.4062 1.3242-2.9375 1.9375-4.5625 21.711 13.461 35.098 37.406 35.098 63.078 0.003906 16.738-5.6133 32.824-15.891 45.883zm147.16-184.9c18.875 14.441 30.039 36.883 30.039 60.805 0 17.797-6.125 34.801-17.312 48.457v-2.5977c0-10.953-3.8516-21.105-10.281-29.125 4.1719-2.9414 7.0117-7.3828 7.9062-12.504 1.0391-5.9609-0.70312-11.965-4.6914-16.398 3.1641-5.0625 3.8516-11.285 1.8008-16.973-1.4102-3.9062-4.0352-7.2578-7.4531-9.543zm-79.383 5.3672c1.0234-1.6211 2.9727-0.89453 3.9492 0.4375 0.80469 0.85156 1.6602 1.9219 2.4102 3.0898 0.5625 0.875 1.707 1.2617 2.6406 0.80078 1.0977-0.54297 1.4609-1.8945 0.82031-2.9023-0.30078-0.47656-1.1875-1.8125-2.3984-3.1914v-8.6602c6.0547-6.7617 13.809-9.7617 20.871-8.0352 8.7422 2.1367 15.316 1.8242 19.531-0.92578 3.0469-1.9883 4.1875-4.7891 4.6758-6.6758 3.7031 0.76172 6.4961 4.082 6.4961 8.0508v16.25c-1.2109 1.375-2.0938 2.7109-2.3984 3.1875-0.63672 1.0039-0.27734 2.3594 0.82422 2.9023 0.92969 0.45703 2.0742 0.078124 2.6367-0.79688 1.0156-1.3945 2.1055-3.0664 3.4492-4.1133 0.91406-0.71094 2.2891-0.44531 2.8906 0.54688 1.9414 3.207 1.1562 7.8281-0.55469 11.418-1.1133 2.0117-3.0156 5.5703-5.6602 4.4531-0.85937-0.52734-2.0273-0.44141-2.6875 0.32031-1.2031 1.3828-0.09375 3.1211 1.4219 3.5586-0.58594 7.8633-4.6914 15.098-11.195 19.586-8.5039 6.0078-20.52 6.0078-29.02 0-6.5039-4.4883-10.609-11.723-11.195-19.586 1.2852-0.40625 2.3867-1.7695 1.7266-3.0977-0.54688-1.125-1.9297-1.4805-2.9375-0.8125-6.1562 0.89844-9.0234-11.578-6.2969-15.805zm46.848 44.551v12.457c0 7.5195-6.1172 13.637-13.637 13.637-7.5195 0-13.637-6.1172-13.637-13.637v-12.457c8.3359 4.4258 18.934 4.4258 27.273 0zm-72.535 56.746v2.5977c-11.191-13.656-17.312-30.66-17.312-48.457 0-23.508 10.859-45.703 29.23-60.164l0.007812 22.039c-3.0547 2.2656-5.3438 5.3516-6.6562 8.9844-2.0508 5.6875-1.3633 11.906 1.8008 16.973-3.9883 4.4336-5.7344 10.438-4.6914 16.398 0.89453 5.125 3.7344 9.5703 7.9141 12.512-6.4375 8.0117-10.293 18.16-10.293 29.117zm4.0469 7.2148v-7.2148c0-10.832 4.1328-20.801 10.906-28.367h-0.085938c6.9336-7.7617 16.266-12.641 26.473-13.875 1.0195 8.7891 8.4961 15.637 17.555 15.637s16.539-6.8477 17.555-15.637c9.8516 1.1914 18.887 5.7852 25.738 13.086v0.050781c7.1641 7.6523 11.555 17.922 11.555 29.102v7.2148c-14.496 15.082-33.941 23.379-54.848 23.379-20.902 0-40.352-8.2969-54.848-23.375zm35.766 49.09c-3.1562 0-5.7148-2.8047-5.7148-6.2656s2.5586-6.2656 5.7148-6.2656 5.7148 2.8047 5.7148 6.2656-2.5586 6.2656-5.7148 6.2656zm28.973 7.9648c0 5.4375-4.4375 9.8594-9.8867 9.8594-5.4531 0-9.8867-4.4219-9.8867-9.8594v-1.8789c0-1.1172 0.90625-2.0234 2.0234-2.0234s2.0234 0.90625 2.0234 2.0234v1.8789c0 3.2031 2.6211 5.8125 5.8398 5.8125 3.2227 0 5.8398-2.6094 5.8398-5.8125v-1.8789c0-1.1172 0.90625-2.0234 2.0234-2.0234 1.1172 0 2.0234 0.90625 2.0234 2.0234zm9.1953-7.9648c-3.1562 0-5.7148-2.8047-5.7148-6.2656s2.5586-6.2656 5.7148-6.2656 5.7148 2.8047 5.7148 6.2656c0.003907 3.4609-2.5547 6.2656-5.7148 6.2656zm174.52-84.656c1.0117-2.2734 1.8242-4.5 2.4805-6.6836 22.672 13.797 36.648 38.559 36.648 65.23 0 17.887-6.1914 34.949-17.5 48.617v-2.9492c0-23.5-17.809-43.414-40.875-46.16v-12.395c7.7422-5.0898 13.254-13.398 14.449-23.035 1.2148-0.65625 2.3984-1.6836 3.4727-3.0898 3.6367-4.7773 5.9062-14.066 1.3242-19.535zm-71.062 3.1289c0.57031-0.86719 1.7852-1.0625 2.5742-0.39062 1.0625 0.89062 2.4297 2.4141 3.5508 4.1602 0.5625 0.87891 1.707 1.2695 2.6445 0.80859 1.0977-0.53906 1.4609-1.8945 0.82422-2.9023-0.40234-0.63672-1.8398-2.7969-3.7148-4.543-0.48828-9.582 6.4883-17.375 9.7266-20.129 2.8555 4.1211 10.805 12.387 27.926 10.805 12.945-1.1992 17.094 5.1992 18.418 9.8242-1.6172 1.6367-2.832 3.4648-3.1953 4.043-0.63672 1.0078-0.27344 2.3633 0.82422 2.9023 0.9375 0.46094 2.082 0.066406 2.6445-0.8125 1.0156-1.5859 2.2383-2.9844 3.2578-3.8906 0.92969-0.82422 2.4219-0.67578 3.0508 0.39453 2.2695 3.8516 0.58203 10.285-2.0039 13.68-0.72656 0.95312-2.5781 3.0469-4.1992 2.0391-0.85547-0.53125-2.0234-0.43359-2.6836 0.32813-0.82031 0.94531-0.59766 2.3594 0.41016 3.0234 0.64844 0.42969 1.332 0.69922 2.0273 0.84766 0.003906 0.003907 0.003906 0.007813 0.007812 0.011719-2.2617 13.406-14.105 23.602-27.906 23.602-13.805 0-25.645-10.195-27.906-23.602 0.003906-0.003906 0.003906-0.007812 0.007813-0.011719 0.62109-0.13672 1.2344-0.36719 1.8203-0.72266 0.92969-0.55859 1.3906-1.7305 0.91406-2.7031-0.55078-1.1172-1.9297-1.4688-2.9336-0.80469-1.6328 1.0742-3.5117-1.0469-4.2461-2.0078-2.6602-3.4688-4.3633-10.105-1.8398-13.949zm47.77 44.848v11.691c0 7.4961-6.0977 13.598-13.598 13.598-7.4961 0-13.598-6.0977-13.598-13.598v-11.691c2.3633 1.0938 4.8555 1.8594 7.3984 2.3867v-0.003906c5.9492 1.2266 12.562 0.57031 18.086-1.6914v0.039062c0.57422-0.22656 1.1445-0.46875 1.7109-0.73047zm-72.117 56.238v2.9453c-11.312-13.668-17.5-30.73-17.5-48.617 0-26.52 13.848-51.188 36.316-65.023 0.57422 2.3789 1.3047 4.8125 2.207 7.3047-3.7422 5.5391-1.5312 14.164 1.9297 18.707 1.0781 1.4141 2.2617 2.4453 3.4844 3.0977 1.1992 9.6289 6.7031 17.938 14.438 23.023v12.398c-23.07 2.75-40.875 22.664-40.875 46.164zm112.99 7.5273c-14.434 14.883-33.746 23.066-54.473 23.066-20.727 0-40.039-8.1836-54.473-23.066v-7.5273c0-21.355 16.098-39.473 37.004-42.113 1.1875 8.5039 8.5469 15.234 17.469 15.211 8.918 0.007813 16.246-6.6562 17.469-15.211 20.906 2.6406 37.004 20.758 37.004 42.113z" fill="#fff"/>
 </g>
</svg>
